<svg width="147" height="206" viewBox="0 0 147 206" fill="none" xmlns="http://www.w3.org/2000/svg">
<path d="M7.9587 20.511C8.7574 16.9168 18.259 14.1118 20.9064 12.9352C36.761 5.88871 54.1779 3.15555 71.4576 3.15555C72.3003 3.15555 76.2843 2.46858 76.3474 3.982C76.613 10.3569 71.4805 18.8943 68.3584 24.0234C57.0545 42.594 37.0274 54.5464 19.1846 65.9657C12.4897 70.2505 3 75.7982 3 84.8363C3 92.6703 20.2397 89.9328 24.3499 89.9328C48.294 89.9328 72.2381 89.9328 96.1822 89.9328C103.512 89.9328 81.5485 106.114 80.824 106.599C71.8638 112.601 53.4924 119.527 49.1434 130.567C46.2654 137.872 75.8358 137.957 77.2427 138.005C99.3122 138.753 121.441 137.463 143.496 138.28C149.164 138.49 121.747 154.964 119.943 155.911C116.457 157.739 88.3549 167.542 97.4907 172.991C101.694 175.498 105.64 176.265 104.378 181.944C103.298 186.804 99.8034 190.871 98.1794 195.581C97.3191 198.076 97.1323 200.43 95.9756 202.743" stroke="url(#paint0_linear_40_20)" stroke-width="5" stroke-linecap="round"/>
<defs>
<linearGradient id="paint0_linear_40_20" x1="73.6333" y1="3" x2="73.6333" y2="202.743" gradientUnits="userSpaceOnUse">
<stop stop-color="#7D7D7D" stop-opacity="0.1"/>
<stop offset="0.37" stop-color="#8E8E8E" stop-opacity="0.29"/>
<stop offset="1" stop-color="white" stop-opacity="0"/>
</linearGradient>
</defs>
</svg>
