<svg width="158" height="182" viewBox="0 0 158 182" fill="none" xmlns="http://www.w3.org/2000/svg">
<path d="M51.7461 179.089C48.4094 180.076 41.2803 173.008 38.9718 171.225C25.1475 160.545 14.0427 146.455 5.23568 131.201C4.80618 130.457 2.21564 127.264 3.4171 126.496C8.47801 123.261 18.0528 123.774 23.8249 124.117C44.7233 125.356 64.6731 137.411 83.0751 147.788C89.9799 151.682 99.3386 157.448 106.706 153.195C113.091 149.508 102.073 135.578 99.9783 131.949C87.7746 110.812 75.5709 89.6745 63.3672 68.5371C59.6316 62.0668 84.0153 73.8404 84.7801 74.2516C94.2389 79.3371 109.247 92.2958 120.463 90.9396C127.884 90.0422 112.882 63.8982 112.204 62.6337C101.566 42.7991 89.2361 23.8711 78.6607 4.0164C75.9431 -1.08581 103.345 15.3646 105.037 16.5121C108.303 18.7285 130.616 38.9238 130.402 28.2943C130.303 23.4044 128.917 19.5596 134.19 18.0011C138.701 16.6675 143.798 17.8383 148.464 17.0556C150.936 16.6409 152.95 15.698 155.425 15.6304" stroke="url(#paint0_linear_40_23)" stroke-width="5" stroke-linecap="round"/>
<defs>
<linearGradient id="paint0_linear_40_23" x1="4" y1="129.354" x2="166.813" y2="35.3538" gradientUnits="userSpaceOnUse">
<stop stop-color="white"/>
<stop offset="0.37" stop-color="#8E8E8E" stop-opacity="0.29"/>
<stop offset="0.805381" stop-color="white" stop-opacity="0"/>
</linearGradient>
</defs>
</svg>
